{"accessors":[{"bufferView":0,"componentType":5123,"count":2004,"max":[820],"min":[0],"type":"SCALAR"},{"bufferView":1,"componentType":5126,"count":821,"max":[0.6203958988189697,0.6662545204162598,0.5689467191696167],"min":[-0.5064278841018677,-0.5,-0.5689467787742615],"type":"VEC3"},{"bufferView":2,"componentType":5126,"count":821,"max":[0.999750554561615,0.997393786907196,1.0],"min":[-0.9975234270095825,-1.0,-1.0],"type":"VEC3"},{"bufferView":3,"componentType":5126,"count":821,"max":[0.875,1.0],"min":[0.125,0.0],"type":"VEC2"}],"asset":{"copyright":null,"generator":"Verge3D for Maya v4.9.0","version":"2.0"},"bufferViews":[{"buffer":0,"byteLength":4008,"byteOffset":0,"target":34963},{"buffer":0,"byteLength":9852,"byteOffset":4008,"target":34962},{"buffer":0,"byteLength":9852,"byteOffset":13860,"target":34962},{"buffer":0,"byteLength":6568,"byteOffset":23712,"target":34962}],"buffers":[{"byteLength":30280,"uri":"biginside.bin"}],"cameras":[{"extensions":{"S8S_v3d_camera":{"controls":"ORBIT","enablePan":true,"moveSpeed":1.0,"orbitMaxDistance":1000.0,"orbitMaxPolarAngle":3.141592653589793,"orbitMaxZoom":100.0,"orbitMinDistance":0.0,"orbitMinPolarAngle":0.0,"orbitMinZoom":0.009999999776482582,"orbitTarget":[313.9198928853357,1210.577077434629,-164.06023266578268],"rotateSpeed":1.0,"viewportFitInitialAspect":1.5,"viewportFitType":"HORIZONTAL"}},"name":"perspShape","perspective":{"aspectRatio":1.5,"yfov":0.6605947096585074,"zfar":10000.0,"znear":0.1},"type":"perspective"}],"extensions":{"S8S_v3d_lights":{"lights":[{"color":[1,1,1],"intensity":2.5,"name":"__DEFAULT__","profile":"maya","type":"directional"}]}},"extensionsUsed":["S8S_v3d_materials","S8S_v3d_lights","S8S_v3d_camera","S8S_v3d_mesh","S8S_v3d_node","S8S_v3d_scene"],"materials":[{"extensions":{"S8S_v3d_materials":{"gtaoVisible":true,"nodeGraph":{"edges":[{"fromNode":1,"fromOutput":0,"toInput":0,"toNode":0}],"nodes":[{"inputs":[[0.0,0.0,0.0,1],[0,0,0,0],[0,0,0]],"is_active_output":true,"name":"messed_up_capstone_model_desk1:lambert1SG","outputs":[],"type":"SHADING_ENGINE_MY"},{"inputs":[[0.5,0.5,0.5],[0.0,0.0,0.0],[0.0,0.0,0.0],1.0,0.800000011920929,[1.0,1.0,1.0],0.0,[0.0,0.0,0.0]],"name":"lambert1","outputs":[[0.0,0.0,0.0,0]],"type":"LAMBERT_MY"}]},"profile":"maya"}},"name":"lambert1"},{"extensions":{"S8S_v3d_materials":{"nodeGraph":{"edges":[{"fromNode":0,"fromOutput":0,"toInput":0,"toNode":1}],"nodes":[{"inputs":[[0.10653923276464054,0.10653923276464054,0.10653923276464054],[0,0,0],[0,0,0],[0,0,0],[0,0,0],[0,0,0]],"name":"aiRaySwitchColor","outputs":[[0,0,0],0],"type":"RAY_SWITCH_AR"},{"inputs":[[0,0,0],1],"is_active_output":true,"name":"aiSkyDomeLightShapeColor","outputs":[],"type":"SKYDOME_LIGHT_AR"}]},"profile":"maya"}},"name":"Verge3D_Environment"}],"meshes":[{"extensions":{"S8S_v3d_mesh":{}},"name":"messed_up_capstone_model_desk:pCubeShape2","primitives":[{"attributes":{"NORMAL":2,"POSITION":1,"TEXCOORD_0":3},"indices":0,"material":0,"mode":4}]}],"nodes":[{"extensions":{"S8S_v3d_node":{"frustumCulling":true,"hidden":false,"hidpiCompositing":false,"renderOrder":0,"useCastShadows":true,"useShadows":true}},"mesh":0,"name":"messed_up_capstone_model_desk:pCube2","rotation":[-0.4851375757613112,0.5144332148923105,-0.4851375757613112,0.5144332148923105],"scale":[1972.7806318114328,1972.7806318114328,1972.7806318114326],"translation":[0.0,0.0,316.39200511122453]},{"camera":0,"children":[2],"extensions":{"S8S_v3d_node":{"hidden":true,"hidpiCompositing":false}},"name":"persp","rotation":[-0.03186152417941735,-0.9681102060857344,-0.1719094009103025,0.17942862098411771],"scale":[1.0,1.0,1.0000000000000002],"translation":[-814.5484548740753,2365.3051078628814,-3103.820785271877]},{"extensions":{"S8S_v3d_lights":{"light":0}},"name":"__DEFAULT_LIGHT__","rotation":[-0.13052619222005157,-0.0,-0.0,0.9914448613738104],"translation":[-814.5484548740753,2365.3051078628814,-3103.820785271877]}],"scene":0,"scenes":[{"extensions":{"S8S_v3d_scene":{"aaMethod":"AUTO","iblEnvironmentMode":"PMREM","physicallyCorrectLights":true,"shadowMap":{"esmDistanceScale":2.5,"renderReverseSided":false,"renderSingleSided":true,"type":"PCFPOISSON"},"unitsScaleFactor":1.0,"useHDR":false,"useOIT":false,"worldMaterial":1}},"extras":{"animFrameRate":24.0,"coordSystem":"Y_UP_RIGHT"},"name":"Scene","nodes":[0,1]}]}