{"accessors":[{"bufferView":0,"componentType":5123,"count":3843,"max":[1767],"min":[0],"type":"SCALAR"},{"bufferView":1,"componentType":5126,"count":1768,"max":[0.7371926307678223,3.204468250274658,1.691743016242981],"min":[-1.2583612203598022,1.4202115535736084,-1.6917428970336914],"type":"VEC3"},{"bufferView":2,"componentType":5126,"count":1768,"max":[1.0,1.0,1.0],"min":[-1.0,-1.0,-1.0],"type":"VEC3"},{"bufferView":3,"componentType":5126,"count":1768,"max":[0.875,1.0],"min":[-1.0517609119415283,-1.985440969467163],"type":"VEC2"}],"asset":{"copyright":null,"generator":"Verge3D for Maya v4.9.0","version":"2.0"},"bufferViews":[{"buffer":0,"byteLength":7686,"byteOffset":0,"target":34963},{"buffer":0,"byteLength":21216,"byteOffset":7688,"target":34962},{"buffer":0,"byteLength":21216,"byteOffset":28904,"target":34962},{"buffer":0,"byteLength":14144,"byteOffset":50120,"target":34962}],"buffers":[{"byteLength":64264,"uri":"Desk1.bin"}],"cameras":[{"extensions":{"S8S_v3d_camera":{"controls":"ORBIT","enablePan":true,"moveSpeed":1.0,"orbitMaxDistance":1000.0,"orbitMaxPolarAngle":3.141592653589793,"orbitMaxZoom":100.0,"orbitMinDistance":0.0,"orbitMinPolarAngle":0.0,"orbitMinZoom":0.009999999776482582,"orbitTarget":[-0.8861434446918142,2.689114009367957,1.3235876584687325],"rotateSpeed":1.0,"viewportFitInitialAspect":1.5,"viewportFitType":"HORIZONTAL"}},"name":"perspShape","perspective":{"aspectRatio":1.5,"yfov":0.6605947096585074,"zfar":10000.0,"znear":0.1},"type":"perspective"}],"extensions":{"S8S_v3d_lights":{"lights":[{"color":[1,1,1],"intensity":2.5,"name":"__DEFAULT__","profile":"maya","type":"directional"}]}},"extensionsUsed":["S8S_v3d_materials","S8S_v3d_lights","S8S_v3d_camera","S8S_v3d_mesh","S8S_v3d_node","S8S_v3d_scene"],"materials":[{"extensions":{"S8S_v3d_materials":{"gtaoVisible":true,"nodeGraph":{"edges":[{"fromNode":1,"fromOutput":0,"toInput":0,"toNode":0}],"nodes":[{"inputs":[[0.0,0.0,0.0,1],[0,0,0,0],[0,0,0]],"is_active_output":true,"name":"initialParticleSE","outputs":[],"type":"SHADING_ENGINE_MY"},{"inputs":[1.0,[0.4000000059604645,0.4000000059604645,0.4000000059604645],0.0,0.0,1.0,[1.0,1.0,1.0],0.5,0.0,[1.0,1.0,1.0],0.0,[0.0,0.0,0.0],0.0,0.0,[1.0,1.0,1.0],[1.0,1.0,1.0],0.0,[1.0,1.0,1.0],0.10000000149011612,0.0,[1.0,1.0,1.0],0.30000001192092896,0.0,[1.0,1.0,1.0],[1.0,1.0,1.0],[1.0,1.0,1.0],[0.0,0.0,0.0],1.5],"name":"standardSurface1","outputs":[[0.0,0.0,0.0,0],[0.0,0.0,0.0]],"thinWalled":false,"type":"STANDARD_SURFACE_AR"}]},"profile":"maya"}},"name":"standardSurface1"},{"extensions":{"S8S_v3d_materials":{"nodeGraph":{"edges":[{"fromNode":0,"fromOutput":0,"toInput":0,"toNode":1}],"nodes":[{"inputs":[[0.10653923276464054,0.10653923276464054,0.10653923276464054],[0,0,0],[0,0,0],[0,0,0],[0,0,0],[0,0,0]],"name":"aiRaySwitchColor","outputs":[[0,0,0],0],"type":"RAY_SWITCH_AR"},{"inputs":[[0,0,0],1],"is_active_output":true,"name":"aiSkyDomeLightShapeColor","outputs":[],"type":"SKYDOME_LIGHT_AR"}]},"profile":"maya"}},"name":"Verge3D_Environment"}],"meshes":[{"extensions":{"S8S_v3d_mesh":{}},"name":"pCubeShape1","primitives":[{"attributes":{"NORMAL":2,"POSITION":1,"TEXCOORD_0":3},"indices":0,"material":0,"mode":4}]}],"nodes":[{"extensions":{"S8S_v3d_node":{"frustumCulling":true,"hidden":false,"hidpiCompositing":false,"renderOrder":0,"useCastShadows":true,"useShadows":true}},"mesh":0,"name":"pCube1","rotation":[0.0,0.7071067811865476,0.0,0.7071067811865476],"scale":[3.3497556132002497,2.083473502647081,2.8225915272234503],"translation":[2.316751026925097,-8.316206941426195,-0.7542628847873856]},{"camera":0,"children":[2],"extensions":{"S8S_v3d_node":{"hidden":true,"hidpiCompositing":false}},"name":"persp","rotation":[-0.05598772570746243,-0.6761888570162787,-0.05166398630931537,0.7327788457206957],"scale":[0.9999999999999998,1.0,0.9999999999999998],"translation":[-3.1665349948794677,3.0407579945038075,1.5070636061759213]},{"extensions":{"S8S_v3d_lights":{"light":0}},"name":"__DEFAULT_LIGHT__","rotation":[-0.13052619222005157,-0.0,-0.0,0.9914448613738104],"translation":[-3.1665349948794677,3.0407579945038075,1.5070636061759213]}],"scene":0,"scenes":[{"extensions":{"S8S_v3d_scene":{"aaMethod":"AUTO","iblEnvironmentMode":"PMREM","physicallyCorrectLights":true,"shadowMap":{"esmDistanceScale":2.5,"renderReverseSided":false,"renderSingleSided":true,"type":"PCFPOISSON"},"unitsScaleFactor":1.0,"useHDR":false,"useOIT":false,"worldMaterial":1}},"extras":{"animFrameRate":24.0,"coordSystem":"Y_UP_RIGHT"},"name":"Scene","nodes":[0,1]}]}