{"accessors":[{"bufferView":0,"componentType":5123,"count":36,"max":[13],"min":[0],"type":"SCALAR"},{"bufferView":1,"componentType":5126,"count":14,"max":[-0.3862428069114685,0.5288971662521362,0.3989412784576416],"min":[-0.4504243731498718,-0.11563430726528168,-0.4075121283531189],"type":"VEC3"},{"bufferView":2,"componentType":5126,"count":14,"max":[-0.9948696494102478,0.10116427391767502,0.0],"min":[-0.9948697686195374,0.10116425901651382,0.0],"type":"VEC3"},{"bufferView":3,"componentType":5126,"count":14,"max":[0.37944647669792175,0.8850103616714478],"min":[0.1461832970380783,0.3759487271308899],"type":"VEC2"},{"bufferView":4,"componentType":5123,"count":1986,"max":[800],"min":[0],"type":"SCALAR"},{"bufferView":5,"componentType":5126,"count":801,"max":[0.6203958988189697,0.6662545204162598,0.5689467191696167],"min":[-0.5064278841018677,-0.5,-0.5689467787742615],"type":"VEC3"},{"bufferView":6,"componentType":5126,"count":801,"max":[0.999750554561615,0.997393786907196,1.0],"min":[-0.9975234270095825,-1.0,-1.0],"type":"VEC3"},{"bufferView":7,"componentType":5126,"count":801,"max":[0.875,1.0],"min":[0.125,0.0],"type":"VEC2"}],"asset":{"copyright":null,"generator":"Verge3D for Maya v4.9.0","version":"2.0"},"bufferViews":[{"buffer":0,"byteLength":72,"byteOffset":0,"target":34963},{"buffer":0,"byteLength":168,"byteOffset":72,"target":34962},{"buffer":0,"byteLength":168,"byteOffset":240,"target":34962},{"buffer":0,"byteLength":112,"byteOffset":408,"target":34962},{"buffer":0,"byteLength":3972,"byteOffset":520,"target":34963},{"buffer":0,"byteLength":9612,"byteOffset":4492,"target":34962},{"buffer":0,"byteLength":9612,"byteOffset":14104,"target":34962},{"buffer":0,"byteLength":6408,"byteOffset":23716,"target":34962}],"buffers":[{"byteLength":30124,"uri":"monitorFirst.bin"}],"cameras":[{"extensions":{"S8S_v3d_camera":{"controls":"ORBIT","enablePan":true,"moveSpeed":1.0,"orbitMaxDistance":1000.0,"orbitMaxPolarAngle":3.141592653589793,"orbitMaxZoom":100.0,"orbitMinDistance":0.0,"orbitMinPolarAngle":0.0,"orbitMinZoom":0.009999999776482582,"orbitTarget":[-0.8861434446918142,2.689114009367957,1.3235876584687325],"rotateSpeed":1.0,"viewportFitInitialAspect":1.5,"viewportFitType":"HORIZONTAL"}},"name":"perspShape","perspective":{"aspectRatio":1.5,"yfov":0.6605947096585074,"zfar":10000.0,"znear":0.1},"type":"perspective"}],"extensions":{"S8S_v3d_lights":{"lights":[{"color":[1,1,1],"intensity":2.5,"name":"__DEFAULT__","profile":"maya","type":"directional"}]}},"extensionsUsed":["S8S_v3d_materials","S8S_v3d_lights","S8S_v3d_camera","S8S_v3d_mesh","S8S_v3d_node","S8S_v3d_scene"],"materials":[{"extensions":{"S8S_v3d_materials":{"gtaoVisible":true,"nodeGraph":{"edges":[{"fromNode":1,"fromOutput":0,"toInput":0,"toNode":0}],"nodes":[{"inputs":[[0.0,0.0,0.0,1],[0,0,0,0],[0,0,0]],"is_active_output":true,"name":"standardSurface3SG","outputs":[],"type":"SHADING_ENGINE_MY"},{"inputs":[1.0,[0.0502999983727932,0.06120000034570694,0.10689999908208847],0.0,0.0,1.0,[1.0,1.0,1.0],0.3246753215789795,0.0,[1.0,1.0,1.0],0.0,[0.0,0.0,0.0],0.0,0.20000000298023224,[0.10470402240753174,0.2418828159570694,0.8180000185966492],[1.0,1.0,1.0],0.0,[1.0,1.0,1.0],0.0,0.0,[1.0,1.0,1.0],0.30000001192092896,0.0,[1.0,1.0,1.0],[1.0,1.0,1.0],[1.0,1.0,1.0],[0.0,0.0,0.0],1.5199999809265137],"name":"black_tv_platic","outputs":[[0.0,0.0,0.0,0],[0.0,0.0,0.0]],"thinWalled":false,"type":"STANDARD_SURFACE_AR"}]},"profile":"maya"}},"name":"black_tv_platic"},{"alphaMode":"BLEND","extensions":{"S8S_v3d_materials":{"gtaoVisible":true,"nodeGraph":{"edges":[{"fromNode":1,"fromOutput":0,"toInput":0,"toNode":0}],"nodes":[{"inputs":[[0.0,0.0,0.0,1],[0,0,0,0],[0,0,0]],"is_active_output":true,"name":"standardSurface2SG","outputs":[],"type":"SHADING_ENGINE_MY"},{"inputs":[0.0,[1.0,1.0,1.0],0.0,0.0,1.0,[1.0,1.0,1.0],0.4000000059604645,1.0,[0.7132959961891174,0.8180000185966492,0.8139723539352417],0.0,[0.2922077775001526,0.2922077775001526,0.2922077775001526],0.0,0.0,[1.0,1.0,1.0],[1.0,1.0,1.0],0.0,[1.0,1.0,1.0],0.0,0.0,[1.0,1.0,1.0],0.30000001192092896,0.0,[1.0,1.0,1.0],[1.0,1.0,1.0],[1.0,1.0,1.0],[0.0,0.0,0.0],1.5199999809265137],"name":"glass","outputs":[[0.0,0.0,0.0,0],[0.7132959961891174,0.8180000185966492,0.8139723539352417]],"thinWalled":false,"type":"STANDARD_SURFACE_AR"}]},"profile":"maya"}},"name":"glass"},{"extensions":{"S8S_v3d_materials":{"gtaoVisible":true,"nodeGraph":{"edges":[{"fromNode":1,"fromOutput":0,"toInput":0,"toNode":0}],"nodes":[{"inputs":[[0.0,0.0,0.0,1],[0,0,0,0],[0,0,0]],"is_active_output":true,"name":"lambert1SG","outputs":[],"type":"SHADING_ENGINE_MY"},{"inputs":[[0.5,0.5,0.5],[0.0,0.0,0.0],[0.0,0.0,0.0],1.0,0.800000011920929,[1.0,1.0,1.0],0.0,[0.0,0.0,0.0]],"name":"lambert1","outputs":[[0.0,0.0,0.0,0]],"type":"LAMBERT_MY"}]},"profile":"maya"}},"name":"lambert1"},{"extensions":{"S8S_v3d_materials":{"nodeGraph":{"edges":[{"fromNode":0,"fromOutput":0,"toInput":0,"toNode":1}],"nodes":[{"inputs":[[0.10653923276464054,0.10653923276464054,0.10653923276464054],[0,0,0],[0,0,0],[0,0,0],[0,0,0],[0,0,0]],"name":"aiRaySwitchColor","outputs":[[0,0,0],0],"type":"RAY_SWITCH_AR"},{"inputs":[[0,0,0],1],"is_active_output":true,"name":"aiSkyDomeLightShapeColor","outputs":[],"type":"SKYDOME_LIGHT_AR"}]},"profile":"maya"}},"name":"Verge3D_Environment"}],"meshes":[{"extensions":{"S8S_v3d_mesh":{}},"name":"pCubeShape2","primitives":[{"attributes":{"NORMAL":2,"POSITION":1,"TEXCOORD_0":3},"indices":0,"material":1,"mode":4},{"attributes":{"NORMAL":6,"POSITION":5,"TEXCOORD_0":7},"indices":4,"material":0,"mode":4}]}],"nodes":[{"extensions":{"S8S_v3d_node":{"frustumCulling":true,"hidden":false,"hidpiCompositing":false,"renderOrder":0,"useCastShadows":true,"useShadows":true}},"mesh":0,"name":"pCube2","rotation":[0.0,0.7071067811865476,0.0,0.7071067811865476],"scale":[2.4099693125311274,2.4099693125311274,2.4099693125311274],"translation":[0.01251006547952338,-0.45817834549111935,-1.0861742559354917]},{"camera":0,"children":[2],"extensions":{"S8S_v3d_node":{"hidden":true,"hidpiCompositing":false}},"name":"persp","rotation":[-0.05598772570746243,-0.6761888570162787,-0.05166398630931537,0.7327788457206957],"scale":[0.9999999999999998,1.0,0.9999999999999998],"translation":[-3.1665349948794677,3.0407579945038075,1.5070636061759213]},{"extensions":{"S8S_v3d_lights":{"light":0}},"name":"__DEFAULT_LIGHT__","rotation":[-0.13052619222005157,-0.0,-0.0,0.9914448613738104],"translation":[-3.1665349948794677,3.0407579945038075,1.5070636061759213]}],"scene":0,"scenes":[{"extensions":{"S8S_v3d_scene":{"aaMethod":"AUTO","iblEnvironmentMode":"PMREM","physicallyCorrectLights":true,"shadowMap":{"esmDistanceScale":2.5,"renderReverseSided":false,"renderSingleSided":true,"type":"PCFPOISSON"},"unitsScaleFactor":1.0,"useHDR":false,"useOIT":false,"worldMaterial":3}},"extras":{"animFrameRate":24.0,"coordSystem":"Y_UP_RIGHT"},"name":"Scene","nodes":[0,1]}]}