{
  "asset": {
    "version": "2.0",
    "generator": "THREE.GLTFExporter r175"
  },
  "scenes": [
    {
      "name": "Scene",
      "nodes": [
        3,
        4,
        5
      ]
    }
  ],
  "scene": 0,
  "nodes": [
    {
      "name": "pCubeShape2",
      "mesh": 0
    },
    {
      "name": "pCubeShape2_1",
      "mesh": 1
    },
    {
      "matrix": [
        -5.351206838824235e-16,
        0,
        -2.409969312531128,
        0,
        0,
        2.4099693125311274,
        0,
        0,
        2.409969312531128,
        0,
        -5.351206838824235e-16,
        0,
        0.01251006547952338,
        -0.45817834549111935,
        -1.0861742559354917,
        1
      ],
      "name": "pCube2",
      "extras": {
        "gltfExtensions": {
          "S8S_v3d_mesh": {},
          "S8S_v3d_node": {
            "frustumCulling": true,
            "hidden": false,
            "hidpiCompositing": false,
            "renderOrder": 0,
            "useCastShadows": true,
            "useShadows": true
          }
        },
        "name": "pCube2"
      },
      "children": [
        0,
        1
      ]
    },
    {
      "name": "monitorFirst.gltf",
      "extras": {
        "animFrameRate": 24,
        "coordSystem": "Y_UP_RIGHT",
        "gltfExtensions": {
          "S8S_v3d_scene": {
            "aaMethod": "AUTO",
            "iblEnvironmentMode": "PMREM",
            "physicallyCorrectLights": true,
            "shadowMap": {
              "esmDistanceScale": 2.5,
              "renderReverseSided": false,
              "renderSingleSided": true,
              "type": "PCFPOISSON"
            },
            "unitsScaleFactor": 1,
            "useHDR": false,
            "useOIT": false,
            "worldMaterial": 3
          }
        }
      },
      "children": [
        2
      ]
    },
    {
      "matrix": [
        1,
        0,
        0,
        0,
        0,
        1,
        0,
        0,
        0,
        0,
        1,
        0,
        5,
        10,
        7.5,
        1
      ],
      "name": "DirectionalLight",
      "extensions": {
        "KHR_lights_punctual": {
          "light": 0
        }
      }
    },
    {
      "matrix": [
        1,
        0,
        0,
        0,
        0,
        1,
        0,
        0,
        0,
        0,
        1,
        0,
        -15.396219981165135,
        7.331740342537897,
        -4.193085787957761,
        1
      ],
      "name": "DirectionalLight",
      "extensions": {
        "KHR_lights_punctual": {
          "light": 1
        }
      }
    }
  ],
  "bufferViews": [
    {
      "buffer": 0,
      "byteOffset": 0,
      "byteLength": 168,
      "target": 34962,
      "byteStride": 12
    },
    {
      "buffer": 0,
      "byteOffset": 168,
      "byteLength": 168,
      "target": 34962,
      "byteStride": 12
    },
    {
      "buffer": 0,
      "byteOffset": 336,
      "byteLength": 112,
      "target": 34962,
      "byteStride": 8
    },
    {
      "buffer": 0,
      "byteOffset": 448,
      "byteLength": 72,
      "target": 34963
    },
    {
      "buffer": 0,
      "byteOffset": 520,
      "byteLength": 9612,
      "target": 34962,
      "byteStride": 12
    },
    {
      "buffer": 0,
      "byteOffset": 10132,
      "byteLength": 9612,
      "target": 34962,
      "byteStride": 12
    },
    {
      "buffer": 0,
      "byteOffset": 19744,
      "byteLength": 6408,
      "target": 34962,
      "byteStride": 8
    },
    {
      "buffer": 0,
      "byteOffset": 26152,
      "byteLength": 3972,
      "target": 34963
    }
  ],
  "buffers": [
    {
      "byteLength": 30124,
      "uri": "data:application/octet-stream;base64,"
    }
  ],
  "accessors": [
    {
      "bufferView": 0,
      "componentType": 5126,
      "count": 14,
      "max": [
        -0.9948696494102478,
        0.10116427391767502,
        0
      ],
      "min": [
        -0.9948697686195374,
        0.10116425901651382,
        0
      ],
      "type": "VEC3"
    },
    {
      "bufferView": 1,
      "componentType": 5126,
      "count": 14,
      "max": [
        -0.3862428069114685,
        0.5288971662521362,
        0.3989412784576416
      ],
      "min": [
        -0.4504243731498718,
        -0.11563430726528168,
        -0.4075121283531189
      ],
      "type": "VEC3"
    },
    {
      "bufferView": 2,
      "componentType": 5126,
      "count": 14,
      "max": [
        0.37944647669792175,
        0.8850103616714478
      ],
      "min": [
        0.1461832970380783,
        0.3759487271308899
      ],
      "type": "VEC2"
    },
    {
      "bufferView": 3,
      "componentType": 5123,
      "count": 36,
      "max": [
        13
      ],
      "min": [
        0
      ],
      "type": "SCALAR"
    },
    {
      "bufferView": 4,
      "componentType": 5126,
      "count": 801,
      "max": [
        1,
        1,
        1
      ],
      "min": [
        -0.9975234270095825,
        -1,
        -1
      ],
      "type": "VEC3"
    },
    {
      "bufferView": 5,
      "componentType": 5126,
      "count": 801,
      "max": [
        0.6203958988189697,
        0.6662545204162598,
        0.5689467191696167
      ],
      "min": [
        -0.5064278841018677,
        -0.5,
        -0.5689467787742615
      ],
      "type": "VEC3"
    },
    {
      "bufferView": 6,
      "componentType": 5126,
      "count": 801,
      "max": [
        0.875,
        1
      ],
      "min": [
        0.125,
        0
      ],
      "type": "VEC2"
    },
    {
      "bufferView": 7,
      "componentType": 5123,
      "count": 1986,
      "max": [
        800
      ],
      "min": [
        0
      ],
      "type": "SCALAR"
    }
  ],
  "materials": [
    {
      "pbrMetallicRoughness": {
        "baseColorFactor": [
          1,
          1,
          1,
          0.74
        ],
        "metallicFactor": 1,
        "roughnessFactor": 1
      },
      "alphaMode": "BLEND",
      "name": "glass",
      "extras": {
        "gltfExtensions": {
          "S8S_v3d_materials": {
            "gtaoVisible": true,
            "nodeGraph": {
              "edges": [
                {
                  "fromNode": 1,
                  "fromOutput": 0,
                  "toInput": 0,
                  "toNode": 0
                }
              ],
              "nodes": [
                {
                  "inputs": [
                    [
                      0,
                      0,
                      0,
                      1
                    ],
                    [
                      0,
                      0,
                      0,
                      0
                    ],
                    [
                      0,
                      0,
                      0
                    ]
                  ],
                  "is_active_output": true,
                  "name": "standardSurface2SG",
                  "outputs": [],
                  "type": "SHADING_ENGINE_MY"
                },
                {
                  "inputs": [
                    0,
                    [
                      1,
                      1,
                      1
                    ],
                    0,
                    0,
                    1,
                    [
                      1,
                      1,
                      1
                    ],
                    0.4000000059604645,
                    1,
                    [
                      0.7132959961891174,
                      0.8180000185966492,
                      0.8139723539352417
                    ],
                    0,
                    [
                      0.2922077775001526,
                      0.2922077775001526,
                      0.2922077775001526
                    ],
                    0,
                    0,
                    [
                      1,
                      1,
                      1
                    ],
                    [
                      1,
                      1,
                      1
                    ],
                    0,
                    [
                      1,
                      1,
                      1
                    ],
                    0,
                    0,
                    [
                      1,
                      1,
                      1
                    ],
                    0.30000001192092896,
                    0,
                    [
                      1,
                      1,
                      1
                    ],
                    [
                      1,
                      1,
                      1
                    ],
                    [
                      1,
                      1,
                      1
                    ],
                    [
                      0,
                      0,
                      0
                    ],
                    1.5199999809265137
                  ],
                  "name": "glass",
                  "outputs": [
                    [
                      0,
                      0,
                      0,
                      0
                    ],
                    [
                      0.7132959961891174,
                      0.8180000185966492,
                      0.8139723539352417
                    ]
                  ],
                  "thinWalled": false,
                  "type": "STANDARD_SURFACE_AR"
                }
              ]
            },
            "profile": "maya"
          }
        }
      }
    },
    {
      "pbrMetallicRoughness": {
        "metallicFactor": 1,
        "roughnessFactor": 1
      },
      "doubleSided": true,
      "name": "black_tv_platic",
      "extras": {
        "gltfExtensions": {
          "S8S_v3d_materials": {
            "gtaoVisible": true,
            "nodeGraph": {
              "edges": [
                {
                  "fromNode": 1,
                  "fromOutput": 0,
                  "toInput": 0,
                  "toNode": 0
                }
              ],
              "nodes": [
                {
                  "inputs": [
                    [
                      0,
                      0,
                      0,
                      1
                    ],
                    [
                      0,
                      0,
                      0,
                      0
                    ],
                    [
                      0,
                      0,
                      0
                    ]
                  ],
                  "is_active_output": true,
                  "name": "standardSurface3SG",
                  "outputs": [],
                  "type": "SHADING_ENGINE_MY"
                },
                {
                  "inputs": [
                    1,
                    [
                      0.0502999983727932,
                      0.06120000034570694,
                      0.10689999908208847
                    ],
                    0,
                    0,
                    1,
                    [
                      1,
                      1,
                      1
                    ],
                    0.3246753215789795,
                    0,
                    [
                      1,
                      1,
                      1
                    ],
                    0,
                    [
                      0,
                      0,
                      0
                    ],
                    0,
                    0.20000000298023224,
                    [
                      0.10470402240753174,
                      0.2418828159570694,
                      0.8180000185966492
                    ],
                    [
                      1,
                      1,
                      1
                    ],
                    0,
                    [
                      1,
                      1,
                      1
                    ],
                    0,
                    0,
                    [
                      1,
                      1,
                      1
                    ],
                    0.30000001192092896,
                    0,
                    [
                      1,
                      1,
                      1
                    ],
                    [
                      1,
                      1,
                      1
                    ],
                    [
                      1,
                      1,
                      1
                    ],
                    [
                      0,
                      0,
                      0
                    ],
                    1.5199999809265137
                  ],
                  "name": "black_tv_platic",
                  "outputs": [
                    [
                      0,
                      0,
                      0,
                      0
                    ],
                    [
                      0,
                      0,
                      0
                    ]
                  ],
                  "thinWalled": false,
                  "type": "STANDARD_SURFACE_AR"
                }
              ]
            },
            "profile": "maya"
          }
        }
      }
    }
  ],
  "meshes": [
    {
      "primitives": [
        {
          "mode": 4,
          "attributes": {
            "NORMAL": 0,
            "POSITION": 1,
            "TEXCOORD_0": 2
          },
          "indices": 3,
          "material": 0
        }
      ]
    },
    {
      "primitives": [
        {
          "mode": 4,
          "attributes": {
            "NORMAL": 4,
            "POSITION": 5,
            "TEXCOORD_0": 6
          },
          "indices": 7,
          "material": 1
        }
      ]
    }
  ],
  "extensions": {
    "KHR_lights_punctual": {
      "lights": [
        {
          "name": "DirectionalLight",
          "color": [
            1,
            0.7681511472425809,
            0.21586050010324417
          ],
          "intensity": 1.22,
          "type": "directional"
        },
        {
          "name": "DirectionalLight",
          "color": [
            1,
            1,
            1
          ],
          "intensity": -1.12,
          "type": "directional"
        }
      ]
    }
  },
  "extensionsUsed": [
    "KHR_lights_punctual"
  ]
}